<?xml version="1.0" encoding="UTF-8"?>
<svg id="Warstwa_1" data-name="Warstwa 1" xmlns="http://www.w3.org/2000/svg" viewBox="0 0 160 160">
  <defs>
    <style>
      .cls-1 {
        fill: #fff;
      }
    </style>
  </defs>
  <g>
    <path class="cls-1" d="M160,0v160H0V0h160ZM116.87,84.69v-35.16l-4.19,2.12.1,26.83c-.22.72-5.97,3.07-6.93,3.7-.19-.06-.04-.33,0-.47,2.8-8.41.69-18.16-6.33-23.83-2.28-1.84-4.77-2.73-7.29-4.11-4.42-2.42-8.75-5.02-13.23-7.34l-18.39,9.58-.08,18.99,14.77,8.12v-4.45l-11.17-6.33-.08-13.2,14.69-7.89v37.66l-22.81-12.58v-8.98l-3.57,1.82v9.4s26.31,14.39,26.31,14.39c.21.23-.01.33-.18.45-1.33.96-3.71,1.71-5.16,2.64l-25.18-13.74v-34.64s29.27-15.13,29.27-15.13l3.36,1.9-8.28,4.3.23.31,34.14,19.06v-3.36l-22.19-12.58,8.59-4.61-16.03-8.83-.49.12-32.78,16.44-.05,39.43c6.48,3.64,13.01,7.35,19.56,10.91,4.68,2.55,9.85,5.67,14.63,7.87.32.14.64.41,1.01.39l37.75-19.22ZM116.87,45l-12.64-6.96-8.15,4.05c-.27.37-.25,3.29.08,3.7l9.1,5.11,11.62-5.9ZM52.34,49.22v16.09l3.6-1.82.07-12.08,16.49-8.75c-1.02-.17-3.07-2.06-3.94-1.84l-16.21,8.41ZM73.44,65.31l-6.25-3.28v7.58l6.25,3.52v-7.81ZM111.53,113.17c-6.83.78-7.9,10.22-1.63,12.8,5.64,2.33,11.62-3.13,9.2-8.88-1.31-3.12-4.32-4.29-7.56-3.91ZM43.67,113.28h-3.05l4.76,12.81,3.49.13,4.65-12.62-.17-.32h-2.81l-3.44,10.16-3.44-10.16ZM59.6,113.28v12.97h3.06v-12.97h-3.06ZM78.28,113.28h-9.92l-.23.23v2.58h3.36l.23.23v9.92h2.97v-10.16h3.59v-2.81ZM83.28,113.44v12.81h2.97v-4.22h2.19l2.89,4.22h3.2l-3.12-4.77c3.43-1.05,4.07-5.96.73-7.6-.96-.47-2.97-.59-4.08-.6-1.59-.02-3.17.28-4.77.16ZM101.72,113.28h-3.12v12.97h3.12v-12.97Z"/>
    <path d="M116.87,84.69l-37.75,19.22c-.36.02-.69-.24-1.01-.39-4.78-2.2-9.95-5.32-14.63-7.87-6.55-3.57-13.08-7.27-19.56-10.91l.05-39.43,32.78-16.44.49-.12,16.03,8.83-8.59,4.61,22.19,12.58v3.36l-34.14-19.06-.23-.31,8.28-4.3-3.36-1.9-29.27,15.13v34.64s25.18,13.74,25.18,13.74c1.45-.94,3.82-1.68,5.16-2.64.17-.12.39-.22.18-.45l-26.31-14.39v-9.4s3.57-1.82,3.57-1.82v8.98l22.81,12.58v-37.66l-14.69,7.89.08,13.2,11.17,6.33v4.45l-14.77-8.12.08-18.99,18.39-9.58c4.48,2.32,8.8,4.92,13.23,7.34,2.52,1.38,5.02,2.27,7.29,4.11,7.01,5.67,9.13,15.42,6.33,23.83-.04.13-.19.41,0,.47.95-.63,6.71-2.98,6.93-3.7l-.1-26.83,4.19-2.12v35.16ZM90.7,60.25c-10.1.19-9.54,20.46.08,24.52,7.95,3.35,10.69-6.09,10.13-12.16-.46-4.98-4.51-12.46-10.21-12.35Z"/>
    <path d="M116.87,45l-11.62,5.9-9.1-5.11c-.32-.41-.35-3.33-.08-3.7l8.15-4.05,12.64,6.96ZM108.12,44.69l-2.59-1.56-2.72,1.26c-.09.36.07.26.2.36.22.17,2.12,1.32,2.25,1.33l2.87-1.38Z"/>
    <path d="M52.34,49.22l16.21-8.41c.87-.22,2.93,1.68,3.94,1.84l-16.49,8.75-.07,12.08-3.6,1.82v-16.09Z"/>
    <path d="M111.53,113.17c3.25-.37,6.25.79,7.56,3.91,2.42,5.75-3.55,11.21-9.2,8.88-6.26-2.58-5.2-12.01,1.63-12.8ZM116.49,119.71c0-2.12-1.72-3.84-3.84-3.84s-3.84,1.72-3.84,3.84,1.72,3.84,3.84,3.84,3.84-1.72,3.84-3.84Z"/>
    <path d="M83.28,113.44c1.6.12,3.18-.18,4.77-.16,1.11.01,3.13.13,4.08.6,3.34,1.65,2.7,6.55-.73,7.6l3.12,4.77h-3.2l-2.89-4.22h-2.19v4.22h-2.97v-12.81ZM86.25,119.53h3.36c.67,0,1.61-1.11,1.63-1.81.02-.58-.81-1.62-1.32-1.62h-3.67v3.44Z"/>
    <polygon points="43.67 113.28 47.11 123.44 50.55 113.28 53.36 113.28 53.53 113.6 48.88 126.22 45.39 126.09 40.62 113.28 43.67 113.28"/>
    <polygon points="78.28 113.28 78.28 116.09 74.69 116.09 74.69 126.25 71.72 126.25 71.72 116.33 71.48 116.09 68.12 116.09 68.12 113.52 68.36 113.28 78.28 113.28"/>
    <polygon points="73.44 65.31 73.44 73.13 67.19 69.61 67.19 62.03 73.44 65.31"/>
    <rect x="98.59" y="113.28" width="3.12" height="12.97"/>
    <rect x="59.6" y="113.28" width="3.06" height="12.97"/>
    <path class="cls-1" d="M90.7,60.25c5.71-.11,9.76,7.38,10.21,12.35.56,6.07-2.18,15.51-10.13,12.16-9.62-4.05-10.19-24.32-.08-24.52ZM93.71,66.44c-4.18.69-2.6,9.86,1.41,10.55,2.82.49,3.83-2.39,3.63-4.73s-2.26-6.28-5.04-5.82Z"/>
    <path class="cls-1" d="M108.12,44.69l-2.87,1.38c-.13-.01-2.03-1.16-2.25-1.33-.13-.1-.29,0-.2-.36l2.72-1.26,2.59,1.56Z"/>
    <circle class="cls-1" cx="112.66" cy="119.71" r="3.84"/>
    <path class="cls-1" d="M86.25,119.53v-3.44h3.67c.52,0,1.34,1.04,1.32,1.62-.02.71-.96,1.81-1.63,1.81h-3.36Z"/>
    <path d="M93.71,66.44c2.78-.46,4.84,3.49,5.04,5.82s-.81,5.21-3.63,4.73c-4-.69-5.59-9.86-1.41-10.55Z"/>
  </g>
  <rect class="cls-1" x="39" y="119" width="83" height="1"/>
</svg>